{
	"patcher" : 	{
		"fileversion" : 1,
		"appversion" : 		{
			"major" : 6,
			"minor" : 1,
			"revision" : 3,
			"architecture" : "x86"
		}
,
		"rect" : [ 168.0, 75.0, 842.0, 788.0 ],
		"bgcolor" : [ 1.0, 1.0, 1.0, 1.0 ],
		"bglocked" : 0,
		"openinpresentation" : 0,
		"default_fontsize" : 10.0,
		"default_fontface" : 0,
		"default_fontname" : "Arial",
		"gridonopen" : 0,
		"gridsize" : [ 15.0, 15.0 ],
		"gridsnaponopen" : 0,
		"statusbarvisible" : 2,
		"toolbarvisible" : 1,
		"boxanimatetime" : 200,
		"imprint" : 1,
		"enablehscroll" : 1,
		"enablevscroll" : 1,
		"devicewidth" : 0.0,
		"description" : "",
		"digest" : "",
		"tags" : "",
		"boxes" : [ 			{
				"box" : 				{
					"autofit" : 1,
					"background" : 0,
					"border" : 1,
					"films" : [  ],
					"hidden" : 0,
					"id" : "obj-21",
					"ignoreclick" : 0,
					"maxclass" : "imovie",
					"name" : "biker480.mov",
					"numinlets" : 1,
					"numoutlets" : 3,
					"outlettype" : [ "int", "int", "int" ],
					"patching_rect" : [ 323.0, 411.0, 480.0, 270.0 ],
					"presentation" : 0,
					"presentation_rect" : [ 0.0, 0.0, 0.0, 0.0 ]
				}

			}
, 			{
				"box" : 				{
					"background" : 0,
					"bgcolor" : [ 1.0, 1.0, 1.0, 1.0 ],
					"color" : [ 0.8, 0.84, 0.71, 1.0 ],
					"fontface" : 0,
					"fontname" : "Arial",
					"fontsize" : 10.0,
					"hidden" : 0,
					"id" : "obj-10",
					"ignoreclick" : 0,
					"maxclass" : "newobj",
					"numinlets" : 0,
					"numoutlets" : 1,
					"outlettype" : [ "" ],
					"patcher" : 					{
						"fileversion" : 1,
						"appversion" : 						{
							"major" : 6,
							"minor" : 1,
							"revision" : 3,
							"architecture" : "x86"
						}
,
						"rect" : [ 814.0, 119.0, 640.0, 480.0 ],
						"bglocked" : 0,
						"openinpresentation" : 0,
						"default_fontsize" : 12.0,
						"default_fontface" : 0,
						"default_fontname" : "Arial",
						"gridonopen" : 0,
						"gridsize" : [ 15.0, 15.0 ],
						"gridsnaponopen" : 0,
						"statusbarvisible" : 2,
						"toolbarvisible" : 1,
						"boxanimatetime" : 200,
						"imprint" : 0,
						"enablehscroll" : 1,
						"enablevscroll" : 1,
						"devicewidth" : 0.0,
						"description" : "",
						"digest" : "",
						"tags" : "",
						"boxes" : [ 							{
								"box" : 								{
									"fontname" : "Arial",
									"fontsize" : 12.0,
									"id" : "obj-7",
									"maxclass" : "newobj",
									"numinlets" : 1,
									"numoutlets" : 1,
									"outlettype" : [ "bang" ],
									"patching_rect" : [ 413.0, 72.599998, 60.0, 20.0 ],
									"text" : "loadbang"
								}

							}
, 							{
								"box" : 								{
									"fontname" : "Arial",
									"fontsize" : 11.595187,
									"id" : "obj-28",
									"maxclass" : "message",
									"numinlets" : 2,
									"numoutlets" : 1,
									"outlettype" : [ "" ],
									"patching_rect" : [ 501.0, 125.0, 43.0, 17.0 ],
									"text" : "rate 2."
								}

							}
, 							{
								"box" : 								{
									"fontname" : "Arial",
									"fontsize" : 11.595187,
									"id" : "obj-19",
									"maxclass" : "message",
									"numinlets" : 2,
									"numoutlets" : 1,
									"outlettype" : [ "" ],
									"patching_rect" : [ 501.0, 209.0, 48.0, 17.0 ],
									"text" : "rate -1."
								}

							}
, 							{
								"box" : 								{
									"fontname" : "Arial",
									"fontsize" : 11.595187,
									"id" : "obj-18",
									"maxclass" : "message",
									"numinlets" : 2,
									"numoutlets" : 1,
									"outlettype" : [ "" ],
									"patching_rect" : [ 501.0, 188.0, 43.0, 17.0 ],
									"text" : "rate 0."
								}

							}
, 							{
								"box" : 								{
									"fontname" : "Arial",
									"fontsize" : 11.595187,
									"id" : "obj-9",
									"maxclass" : "message",
									"numinlets" : 2,
									"numoutlets" : 1,
									"outlettype" : [ "" ],
									"patching_rect" : [ 501.0, 167.0, 50.0, 17.0 ],
									"text" : "rate 0.5"
								}

							}
, 							{
								"box" : 								{
									"fontname" : "Arial",
									"fontsize" : 11.595187,
									"id" : "obj-44",
									"maxclass" : "message",
									"numinlets" : 2,
									"numoutlets" : 1,
									"outlettype" : [ "" ],
									"patching_rect" : [ 501.0, 146.0, 43.0, 17.0 ],
									"text" : "rate 1."
								}

							}
, 							{
								"box" : 								{
									"id" : "obj-15",
									"maxclass" : "toggle",
									"numinlets" : 1,
									"numoutlets" : 1,
									"outlettype" : [ "int" ],
									"parameter_enable" : 0,
									"patching_rect" : [ 569.0, 149.0, 20.0, 20.0 ]
								}

							}
, 							{
								"box" : 								{
									"fontname" : "Arial",
									"fontsize" : 11.595187,
									"id" : "obj-14",
									"maxclass" : "message",
									"numinlets" : 2,
									"numoutlets" : 1,
									"outlettype" : [ "" ],
									"patching_rect" : [ 569.0, 184.0, 49.0, 17.0 ],
									"text" : "loop $1"
								}

							}
, 							{
								"box" : 								{
									"fontname" : "Arial",
									"fontsize" : 11.595187,
									"id" : "obj-5",
									"maxclass" : "message",
									"numinlets" : 2,
									"numoutlets" : 1,
									"outlettype" : [ "" ],
									"patching_rect" : [ 413.0, 123.0, 32.0, 17.0 ],
									"text" : "stop"
								}

							}
, 							{
								"box" : 								{
									"fontname" : "Arial",
									"fontsize" : 11.595187,
									"id" : "obj-4",
									"maxclass" : "message",
									"numinlets" : 2,
									"numoutlets" : 1,
									"outlettype" : [ "" ],
									"patching_rect" : [ 376.0, 123.0, 33.0, 17.0 ],
									"text" : "start"
								}

							}
, 							{
								"box" : 								{
									"comment" : "",
									"id" : "obj-1",
									"maxclass" : "outlet",
									"numinlets" : 1,
									"numoutlets" : 0,
									"patching_rect" : [ 376.0, 362.339996, 25.0, 25.0 ]
								}

							}
 ],
						"lines" : [ 							{
								"patchline" : 								{
									"destination" : [ "obj-1", 0 ],
									"disabled" : 0,
									"hidden" : 0,
									"midpoints" : [ 578.5, 348.0, 385.5, 348.0 ],
									"source" : [ "obj-14", 0 ]
								}

							}
, 							{
								"patchline" : 								{
									"color" : [ 0.0, 0.0, 0.0, 1.0 ],
									"destination" : [ "obj-14", 0 ],
									"disabled" : 0,
									"hidden" : 0,
									"midpoints" : [ 578.5, 171.0, 578.5, 171.0 ],
									"source" : [ "obj-15", 0 ]
								}

							}
, 							{
								"patchline" : 								{
									"destination" : [ "obj-1", 0 ],
									"disabled" : 0,
									"hidden" : 0,
									"midpoints" : [ 510.5, 207.0, 385.5, 207.0 ],
									"source" : [ "obj-18", 0 ]
								}

							}
, 							{
								"patchline" : 								{
									"destination" : [ "obj-1", 0 ],
									"disabled" : 0,
									"hidden" : 0,
									"midpoints" : [ 510.5, 348.0, 385.5, 348.0 ],
									"source" : [ "obj-19", 0 ]
								}

							}
, 							{
								"patchline" : 								{
									"destination" : [ "obj-1", 0 ],
									"disabled" : 0,
									"hidden" : 0,
									"midpoints" : [ 510.5, 144.0, 456.0, 144.0, 456.0, 348.0, 385.5, 348.0 ],
									"source" : [ "obj-28", 0 ]
								}

							}
, 							{
								"patchline" : 								{
									"destination" : [ "obj-1", 0 ],
									"disabled" : 0,
									"hidden" : 0,
									"midpoints" : [ 385.5, 141.0, 385.5, 141.0 ],
									"source" : [ "obj-4", 0 ]
								}

							}
, 							{
								"patchline" : 								{
									"destination" : [ "obj-1", 0 ],
									"disabled" : 0,
									"hidden" : 0,
									"midpoints" : [ 510.5, 165.0, 385.5, 165.0 ],
									"source" : [ "obj-44", 0 ]
								}

							}
, 							{
								"patchline" : 								{
									"destination" : [ "obj-1", 0 ],
									"disabled" : 0,
									"hidden" : 0,
									"midpoints" : [ 422.5, 348.0, 385.5, 348.0 ],
									"source" : [ "obj-5", 0 ]
								}

							}
, 							{
								"patchline" : 								{
									"destination" : [ "obj-5", 0 ],
									"disabled" : 0,
									"hidden" : 0,
									"source" : [ "obj-7", 0 ]
								}

							}
, 							{
								"patchline" : 								{
									"destination" : [ "obj-1", 0 ],
									"disabled" : 0,
									"hidden" : 0,
									"midpoints" : [ 510.5, 186.0, 385.5, 186.0 ],
									"source" : [ "obj-9", 0 ]
								}

							}
 ]
					}
,
					"patching_rect" : [ 429.0, 353.0, 106.0, 18.0 ],
					"presentation" : 0,
					"presentation_rect" : [ 0.0, 0.0, 0.0, 0.0 ],
					"saved_object_attributes" : 					{
						"default_fontface" : 0,
						"default_fontname" : "Arial",
						"default_fontsize" : 12.0,
						"description" : "",
						"digest" : "",
						"fontface" : 0,
						"fontname" : "Arial",
						"fontsize" : 12.0,
						"globalpatchername" : "",
						"tags" : ""
					}
,
					"text" : "p more fun with video",
					"textcolor" : [ 0.0, 0.0, 0.0, 1.0 ],
					"textjustification" : 0
				}

			}
, 			{
				"box" : 				{
					"background" : 0,
					"bgcolor" : [ 1.0, 1.0, 1.0, 1.0 ],
					"color" : [ 0.8, 0.84, 0.71, 1.0 ],
					"fontface" : 0,
					"fontname" : "Arial",
					"fontsize" : 10.0,
					"hidden" : 0,
					"id" : "obj-8",
					"ignoreclick" : 0,
					"maxclass" : "newobj",
					"numinlets" : 1,
					"numoutlets" : 1,
					"outlettype" : [ "bang" ],
					"patching_rect" : [ 323.0, 323.0, 52.0, 18.0 ],
					"presentation" : 0,
					"presentation_rect" : [ 0.0, 0.0, 0.0, 0.0 ],
					"text" : "loadbang",
					"textcolor" : [ 0.0, 0.0, 0.0, 1.0 ],
					"textjustification" : 0
				}

			}
, 			{
				"box" : 				{
					"background" : 0,
					"bgcolor" : [ 1.0, 1.0, 1.0, 1.0 ],
					"bordercolor" : [ 0.5, 0.5, 0.5, 1.0 ],
					"cantchange" : 0,
					"fontface" : 0,
					"fontname" : "Arial",
					"fontsize" : 11.595187,
					"format" : 0,
					"hbgcolor" : [ 0.0, 0.0, 0.0, 1.0 ],
					"hidden" : 0,
					"htextcolor" : [ 1.0, 1.0, 1.0, 1.0 ],
					"htricolor" : [ 0.87, 0.82, 0.24, 1.0 ],
					"id" : "obj-17",
					"ignoreclick" : 0,
					"maxclass" : "number",
					"maximum" : "<none>",
					"minimum" : "<none>",
					"mouseup" : 0,
					"numinlets" : 1,
					"numoutlets" : 2,
					"outlettype" : [ "int", "bang" ],
					"outputonclick" : 0,
					"parameter_enable" : 0,
					"patching_rect" : [ 323.0, 704.0, 142.0, 19.0 ],
					"presentation" : 0,
					"presentation_rect" : [ 0.0, 0.0, 0.0, 0.0 ],
					"textcolor" : [ 0.0, 0.0, 0.0, 1.0 ],
					"triangle" : 1,
					"tricolor" : [ 0.75, 0.75, 0.75, 1.0 ],
					"triscale" : 1.0
				}

			}
, 			{
				"box" : 				{
					"background" : 0,
					"bgcolor" : [ 1.0, 1.0, 1.0, 1.0 ],
					"bgcolor2" : [ 0.867, 0.867, 0.867, 1.0 ],
					"fontface" : 0,
					"fontname" : "Arial",
					"fontsize" : 11.595187,
					"gradient" : 0,
					"hidden" : 0,
					"id" : "obj-16",
					"ignoreclick" : 0,
					"maxclass" : "message",
					"numinlets" : 2,
					"numoutlets" : 1,
					"outlettype" : [ "" ],
					"patching_rect" : [ 323.0, 353.0, 84.0, 17.0 ],
					"presentation" : 0,
					"presentation_rect" : [ 0.0, 0.0, 0.0, 0.0 ],
					"text" : "length, mute 1",
					"textcolor" : [ 0.0, 0.0, 0.0, 1.0 ],
					"textjustification" : 0
				}

			}
 ],
		"lines" : [ 			{
				"patchline" : 				{
					"color" : [ 0.8, 0.8, 0.8, 0.9 ],
					"destination" : [ "obj-21", 0 ],
					"disabled" : 0,
					"hidden" : 0,
					"source" : [ "obj-10", 0 ]
				}

			}
, 			{
				"patchline" : 				{
					"color" : [ 0.8, 0.8, 0.8, 0.9 ],
					"destination" : [ "obj-21", 0 ],
					"disabled" : 0,
					"hidden" : 0,
					"source" : [ "obj-16", 0 ]
				}

			}
, 			{
				"patchline" : 				{
					"color" : [ 0.8, 0.8, 0.8, 0.9 ],
					"destination" : [ "obj-17", 0 ],
					"disabled" : 0,
					"hidden" : 0,
					"source" : [ "obj-21", 0 ]
				}

			}
, 			{
				"patchline" : 				{
					"color" : [ 0.8, 0.8, 0.8, 0.9 ],
					"destination" : [ "obj-16", 0 ],
					"disabled" : 0,
					"hidden" : 0,
					"midpoints" : [ 332.5, 342.0, 332.5, 342.0 ],
					"source" : [ "obj-8", 0 ]
				}

			}
 ],
		"dependency_cache" : [  ]
	}

}
